#!OML:ASF G:\JayActor3\Patient Classification 1\Patient 1\Session 2\male.ASF
:FULLY-SPECIFIED
:DEGREES
1280
root 46.5397 16.5337 -9.96176 -715.354 -82.6087 -366.128
lowerback -1.81315 0.520858 -0.821264
upperback 4.51141 0.667963 0.274056
thorax 5.67236 0.264597 0.786625
lowerneck -9.208 -2.87452 -2.31526
upperneck 7.6111 -4.33051 7.48046
head 3.99725 -1.83953 2.39546
rclavicle 1.88224e-014 2.08724e-015
rhumerus -30.2586 9.69531 -88.0043
rradius 39.5348
rwrist -2.94422
rhand -15.041 3.95138
rfingers 7.12502
rthumb 11.1252 -25.7337
lclavicle 1.88224e-014 2.08724e-015
lhumerus -27.0162 3.03687 84.7263
lradius 25.4347
lwrist 8.60271
lhand -21.1449 19.6119
lfingers 7.12502
lthumb 5.23441 49.5273
rfemur -3.2866 -5.51788 13.2247
rtibia 42.2082
rfoot -33.0118 -16.2496
rtoes 18.6904
lfemur -11.456 10.3768 -19.9421
ltibia 30.4726
lfoot -16.6507 13.3662
ltoes -3.87798
1281
root 46.523 16.5297 -9.91561 -715.791 -82.6924 -365.809
lowerback -1.69842 0.497738 -0.983534
upperback 4.5457 0.642874 0.25644
thorax 5.64179 0.244747 0.856572
lowerneck -9.1396 -2.86339 -2.32274
upperneck 7.20214 -4.30157 7.61421
head 3.86373 -1.82922 2.44133
rclavicle 2.44754e-015 -2.78299e-015
rhumerus -30.1842 8.96726 -87.6806
rradius 38.6103
rwrist -2.78863
rhand -15.286 3.96994
rfingers 7.12502
rthumb 10.8889 -25.7277
lclavicle 2.44754e-015 -2.78299e-015
lhumerus -26.4158 2.57135 84.8167
lradius 25.6801
lwrist 8.80425
lhand -21.2174 19.8425
lfingers 7.12502
lthumb 5.16441 49.7595
rfemur -3.76162 -5.33045 13.0416
rtibia 43.2369
rfoot -32.859 -16.679
rtoes 19.0416
lfemur -11.2166 10.5827 -20.1086
ltibia 30.4485
lfoot -16.7279 13.2518
ltoes -3.96776
1282
root 46.5071 16.5251 -9.87007 -716.256 -82.7886 -365.457
lowerback -1.58363 0.478133 -1.1495
upperback 4.58036 0.622324 0.236501
thorax 5.61165 0.227011 0.926545
lowerneck -9.07191 -2.85171 -2.3236
upperneck 6.79769 -4.27145 7.73673
head 3.73146 -1.81906 2.48268
rclavicle 1.85988e-014 5.36719e-015
rhumerus -30.0918 8.2173 -87.3393
rradius 37.6446
rwrist -2.60412
rhand -15.4678 3.91467
rfingers 7.12502
rthumb 10.7136 -25.7922
lclavicle 1.85988e-014 5.36719e-015
lhumerus -25.8119 2.11589 84.8926
lradius 25.9174
lwrist 9.00261
lhand -21.2877 20.0552
lfingers 7.12502
lthumb 5.09661 49.9739
rfemur -4.30186 -5.16606 12.8562
rtibia 44.3329
rfoot -32.6837 -17.1486
rtoes 19.4709
lfemur -10.9869 10.8011 -20.2767
ltibia 30.4306
lfoot -16.8067 13.1385
ltoes -4.05787
1283
root 46.4917 16.52 -9.82515 -716.765 -82.8955 -365.056
lowerback -1.4701 0.461413 -1.32147
upperback 4.61508 0.605587 0.21415
thorax 5.58234 0.210932 0.997688
lowerneck -9.00679 -2.83961 -2.31691
upperneck 6.39935 -4.24042 7.84617
head 3.60115 -1.80913 2.51877
rclavicle 1.86982e-014 -2.98177e-016
rhumerus -29.9874 7.44714 -86.9807
rradius 36.6521
rwrist -2.39009
rhand -15.61 3.80735
rfingers 7.12502
rthumb 10.5764 -25.9065
lclavicle 1.86982e-014 -2.98177e-016
lhumerus -25.2065 1.66953 84.9551
lradius 26.1484
lwrist 9.20085
lhand -21.3613 20.1749
lfingers 7.12502
lthumb 5.02554 50.0953
rfemur -4.90592 -5.02875 12.6664
rtibia 45.4888
rfoot -32.483 -17.6612
rtoes 19.9825
lfemur -10.7678 11.0339 -20.4479
ltibia 30.4182
lfoot -16.8859 13.0229
ltoes -4.15147
1284
root 46.477 16.5143 -9.78093 -717.338 -83.0101 -364.583
lowerback -1.3593 0.446518 -1.5025
upperback 4.64988 0.591398 0.189259
thorax 5.55473 0.195743 1.0715
lowerneck -8.94609 -2.82699 -2.30189
upperneck 6.00757 -4.20845 7.94133
head 3.47319 -1.79934 2.5491
rclavicle 3.03271e-014 -7.95139e-016
rhumerus -29.8759 6.65972 -86.6056
rradius 35.645
rwrist -2.14155
rhand -15.7464 3.68723
rfingers 7.12502
rthumb 10.4448 -26.0333
lclavicle 3.03271e-014 -7.95139e-016
lhumerus -24.601 1.23171 85.0053
lradius 26.3751
lwrist 9.401
lhand -21.4431 20.1529
lfingers 7.12502
lthumb 4.94647 50.0752
rfemur -5.57064 -4.91944 12.4701
rtibia 46.6949
rfoot -32.254 -18.2224
rtoes 20.5735
lfemur -10.5601 11.2816 -20.6241
ltibia 30.4095
lfoot -16.9647 12.9021
ltoes -4.24776
1285
root 46.4628 16.5081 -9.73748 -718.006 -83.1296 -364.009
lowerback -1.25155 0.432551 -1.69652
upperback 4.685 0.578719 0.161456
thorax 5.52924 0.18075 1.14973
lowerneck -8.89763 -2.8198 -2.35106
upperneck 5.37301 -4.15293 7.848
head 3.62217 -1.80812 2.81186
rclavicle 1.51573e-015 1.98785e-016
rhumerus -29.7609 5.85735 -86.2142
rradius 34.636
rwrist -1.85785
rhand -15.8976 3.58918
rfingers 7.12502
rthumb 10.2989 -26.1387
lclavicle 1.51573e-015 1.98785e-016
lhumerus -23.9967 0.80178 85.0439
lradius 26.5998
lwrist 9.60388
lhand -21.5362 19.9805
lfingers 7.12502
lthumb 4.85661 49.9048
rfemur -6.29075 -4.83563 12.2651
rtibia 47.94
rfoot -31.9945 -18.8382
rtoes 21.2392
lfemur -10.363 11.5429 -20.8083
ltibia 30.4024
lfoot -17.0421 12.7743
ltoes -4.34453
1286
root 46.449 16.5014 -9.69488 -718.798 -83.2508 -363.303
lowerback -1.14532 0.418808 -1.9069
upperback 4.72025 0.566704 0.130161
thorax 5.50484 0.165398 1.23358
lowerneck -8.84505 -2.80613 -2.3217
upperneck 5.00356 -4.12068 7.9197
head 3.48251 -1.79783 2.82942
rclavicle 6.75868e-015 3.18055e-015
rhumerus -29.6468 5.04175 -85.8079
rradius 33.6354
rwrist -1.53772
rhand -16.0688 3.53353
rfingers 7.12502
rthumb 10.1338 -26.2024
lclavicle 6.75868e-015 3.18055e-015
lhumerus -23.3946 0.38191 85.0702
lradius 26.821
lwrist 9.80622
lhand -21.6359 19.7114
lfingers 7.12502
lthumb 4.76033 49.638
rfemur -7.05826 -4.77286 12.0502
rtibia 49.2121
rfoot -31.699 -19.515
rtoes 21.971
lfemur -10.1749 11.8162 -21.0028
ltibia 30.395
lfoot -17.1178 12.6386
ltoes -4.4367
